<?xml version="1.0" encoding="iso-8859-1"?>
<!-- Generator: Adobe Illustrator 19.0.0, SVG Export Plug-In . SVG Version: 6.00 Build 0)  -->
<svg xmlns="http://www.w3.org/2000/svg" xmlns:xlink="http://www.w3.org/1999/xlink" version="1.1" id="Layer_1" x="0px" y="0px" viewBox="0 0 512 512" style="enable-background:new 0 0 512 512;" xml:space="preserve" width="512" height="512">
<g>
	<path style="fill:#CAD4E4;" d="M255,286v46c0,32.1-11.1,61.5-30,84.6c-24.6,30.599-62.701,50.4-105,50.4H30v-60h90   c41.4,0,75-33.6,75-75v-46H255z"/>
	<path style="fill:#ADB5CC;" d="M225,286h30v46c0,32.1-11.1,61.5-30,84.6V286z"/>
	<polygon style="fill:#8F97AE;" points="300,240 255,301 195,301 150,240 172.5,210 276.301,210  "/>
	<polygon style="fill:#7A869A;" points="300,240 255,301 225,301 225,210 276.301,210  "/>
	<path style="fill:#304653;" d="M492.254,209.224l-90-30C396.131,177.188,392,171.46,392,165v-60c0-6.46,4.131-12.188,10.254-14.224   l90-30c4.57-1.553,9.595-0.762,13.521,2.051C509.686,65.654,512,70.181,512,75v120c0,4.819-2.314,9.346-6.226,12.173   C501.71,210.089,496.62,210.706,492.254,209.224z"/>
	<path style="fill:#FF8900;" d="M422,60v105c0,41.4-33.6,75-75,75H144.6c0,0,0,0-0.3,0L120,60H422z"/>
	<path style="fill:#FF6300;" d="M422,60v105c0,41.4-33.6,75-75,75H225V60H422z"/>
	<path style="fill:#4D5A68;" d="M437,0H75C33.6,0,0,33.6,0,75v90c0,41.4,33.6,75,75,75h69.3c11.4-23.101,60-120,60-120H347   c59.399,0,105-48.9,105-105C452,6.599,445.401,0,437,0z"/>
	<path style="fill:#4D5A68;" d="M15,512L15,512c-8.284,0-15-6.716-15-15V377c0-8.284,6.716-15,15-15h0c24.853,0,45,20.147,45,45v60   C60,491.853,39.853,512,15,512z"/>
	<path style="fill:#304653;" d="M452,15c0,56.1-45.601,105-105,105H225V0h212C445.401,0,452,6.599,452,15z"/>
</g>















</svg>
