<?xml version="1.0" encoding="iso-8859-1"?>
<!-- Generator: Adobe Illustrator 19.0.0, SVG Export Plug-In . SVG Version: 6.00 Build 0)  -->
<svg version="1.1" id="Layer_1" xmlns="http://www.w3.org/2000/svg" xmlns:xlink="http://www.w3.org/1999/xlink" x="0px" y="0px"
	 viewBox="0 0 512 512" style="enable-background:new 0 0 512 512;" xml:space="preserve">
<path style="fill:#F4A026;" d="M499.512,309.698V203.551h-57.27c-4.111-14.985-9.834-28.387-16.996-41.235l40.55-40.65L390.74,46.56
	l-40.278,40.527c-12.847-7.162-27.027-12.91-40.764-17.02V12.488H203.551v57.579c-14.985,4.111-28.462,9.834-41.31,16.996
	l-40.687-40.552L46.43,121.568l40.517,40.749c-7.162,12.847-12.919,26.249-17.03,41.235H12.488v106.146h57.429
	c4.111,13.737,9.834,27.991,16.996,40.839l-40.55,40.452l75.057,75.007l40.824-40.575c12.847,7.163,26.324,12.861,41.31,16.971
	v57.122h106.146v-57.12c13.737-4.111,27.917-9.834,40.764-16.996l40.414,40.55l74.988-75.057l-40.585-40.353
	c7.163-12.847,12.851-27.102,16.962-40.839H499.512z M256.079,393.594c-75.744,0-137.366-61.622-137.366-137.366
	s61.622-137.366,137.366-137.366s137.366,61.622,137.366,137.366S331.823,393.594,256.079,393.594z"/>
<g>
	<path style="fill:#231F20;" d="M256.079,106.375c-82.629,0-149.854,67.224-149.854,149.854s67.224,149.854,149.854,149.854
		s149.854-67.224,149.854-149.854S338.708,106.375,256.079,106.375z M256.079,381.107c-68.859,0-124.878-56.02-124.878-124.878
		S187.22,131.35,256.079,131.35s124.878,56.02,124.878,124.878S324.938,381.107,256.079,381.107z"/>
	<path style="fill:#231F20;" d="M499.512,191.063h-47.994c-2.955-8.994-6.572-17.746-10.929-26.445l34.049-34.132
		c4.865-4.878,4.862-12.774-0.009-17.647l-75.057-75.284c-2.343-2.344-5.52-3.839-8.833-3.839c-0.006,0-0.011,0-0.018,0
		c-3.319,0-6.5,1.509-8.84,3.862l-33.783,34.079c-8.176-4.042-16.928-7.594-25.915-10.691v-48.48C322.184,5.591,316.592,0,309.696,0
		H203.55c-6.896,0-12.488,5.591-12.488,12.488v48.298c-9.046,2.966-17.826,6.587-26.522,10.938l-34.17-34.057
		c-4.879-4.862-12.773-4.857-17.642,0.011l-75.125,75.055c-4.87,4.867-4.884,12.756-0.029,17.639l34.034,34.229
		c-4.382,8.733-8.012,17.493-10.966,26.462H12.488C5.592,191.063,0,196.654,0,203.551v106.146c0,6.897,5.592,12.488,12.488,12.488
		h48.327c3.112,9.065,6.75,17.846,10.771,26.001l-34.043,33.961c-2.348,2.341-3.668,5.52-3.669,8.835s1.316,6.495,3.661,8.839
		l75.057,75.007c4.867,4.865,12.751,4.873,17.63,0.025l34.309-34.102c8.677,4.337,17.46,7.953,26.533,10.923v47.838
		c0,6.897,5.592,12.488,12.488,12.488h106.146c6.896,0,12.488-5.591,12.488-12.488V451.49c9.011-3.101,17.766-6.736,25.925-10.764
		l33.921,33.959c2.341,2.349,5.521,3.596,8.838,3.596c0.003,0,0.005,0,0.008,0c3.313,0,6.491-1.241,8.834-3.587l74.989-75.019
		c2.345-2.346,3.66-5.511,3.654-8.828c-0.005-3.317-1.33-6.486-3.683-8.825l-34.058-33.859c3.995-8.121,7.623-16.891,10.737-25.98
		h48.163c6.896,0,12.488-5.591,12.488-12.488V203.55C512,196.654,506.408,191.063,499.512,191.063z M487.024,297.21h-44.783
		c-5.518,0-10.381,3.621-11.963,8.909c-4.143,13.849-9.644,27.106-15.904,38.338c-2.725,4.888-1.866,10.991,2.103,14.935
		l31.708,31.527l-57.297,57.348l-31.58-31.687c-3.946-3.96-10.045-4.813-14.925-2.092c-11.373,6.34-24.603,11.852-38.264,15.939
		c-5.285,1.582-8.908,6.445-8.908,11.963v44.634H216.04v-44.633c0-5.625-3.76-10.555-9.184-12.043
		c-13.416-3.68-26.021-8.86-38.532-15.836c-4.862-2.71-10.934-1.876-14.884,2.05l-31.995,31.801l-57.406-57.368l31.695-31.619
		c3.956-3.946,4.809-10.041,2.088-14.922c-6.31-11.318-11.821-24.576-15.939-38.338c-1.583-5.287-6.447-8.909-11.966-8.909H24.976
		v-81.171h44.941c5.625,0,10.555-3.76,12.043-9.185c3.614-13.175,8.813-25.755,15.894-38.456c2.712-4.865,1.874-10.937-2.053-14.885
		l-31.733-31.915l57.498-57.444l31.86,31.754c3.949,3.935,10.028,4.777,14.897,2.062c12.571-7.008,25.177-12.197,38.532-15.861
		c5.425-1.487,9.184-6.419,9.184-12.043v-45.09h81.171v45.09c0,5.517,3.62,10.381,8.908,11.963
		c13.599,4.07,26.83,9.591,38.263,15.964c4.89,2.725,10.992,1.867,14.939-2.104l31.447-31.639l57.385,57.424l-31.745,31.821
		c-3.937,3.949-4.782,10.029-2.065,14.9c7.037,12.621,12.224,25.202,15.86,38.457c1.487,5.425,6.419,9.185,12.043,9.185h44.781
		V297.21z"/>
	<path style="fill:#231F20;" d="M300.956,257.249h-33.717V194.81c0-6.897-5.592-12.488-12.488-12.488
		c-6.896,0-12.488,5.591-12.488,12.488v74.927c0,6.897,5.592,12.488,12.488,12.488h46.205c6.896,0,12.488-5.591,12.488-12.488
		C313.444,262.84,307.852,257.249,300.956,257.249z"/>
</g>
<g>
</g>
<g>
</g>
<g>
</g>
<g>
</g>
<g>
</g>
<g>
</g>
<g>
</g>
<g>
</g>
<g>
</g>
<g>
</g>
<g>
</g>
<g>
</g>
<g>
</g>
<g>
</g>
<g>
</g>
</svg>
